{"title":"Resurrection US S01E04 HDTV x264 AAC E-Subs [GWC].mp4","uid":9859195,"size":126086508,"categoryP":"video","categoryS":"tv_shows","magnet":"?xt=urn:btih:19f8713938fa6873c983f4baf5d8cad933ee286b&amp;dn=Resurrection+US+S01E04+HDTV+x264+AAC+E-Subs+%5BGWC%5D.mp4&amp;tr=udp%3A%2F%2Ftracker.openbittorrent.com%3A80&amp;tr=udp%3A%2F%2Fopen.demonii.com%3A1337&amp;tr=udp%3A%2F%2Ftracker.coppersurfer.tk%3A6969&amp;tr=udp%3A%2F%2Fexodus.desync.com%3A6969","seeders":1,"leechers":0,"uploader":"canc232","files":1,"time":1396264816,"description":"Resurrection US S01E04 HDTV x264 AAC E-Subs [GWC] \n\n\nSTORYLINE :\nThe lives of the people of Aurora are forever changed when their deceased loved ones return.\n\n\nSCREENS : &lt;a href=&quot;\nhttp://i.imgur.com/KfMSNsH.jpg&quot; rel=&quot;nofollow&quot; target=&quot;_NEW&quot;&gt;\nhttp://i.imgur.com/KfMSNsH.jpg&lt;/a&gt; &lt;a href=&quot;\nhttp://i.imgur.com/Ig81LV8.jpg&quot; rel=&quot;nofollow&quot; target=&quot;_NEW&quot;&gt;\nhttp://i.imgur.com/Ig81LV8.jpg&lt;/a&gt; &lt;a href=&quot;\nhttp://i.imgur.com/8T8pgxt.jpg&quot; rel=&quot;nofollow&quot; target=&quot;_NEW&quot;&gt;\nhttp://i.imgur.com/8T8pgxt.jpg&lt;/a&gt;\n\n\nMEDIA INFO :\nGeneral  \nFormat : MPEG-4 \nFormat profile : Base Media \nFile size : 120 MiB \nDuration : 42mn 49s \nOverall bit rate mode : Variable \nOverall bit rate : 393 Kbps \n\nVideo \nFormat : AVC \nFormat profile : &lt;a class=&quot;__cf_email__&quot; href=&quot;/cdn-cgi/l/email-protection&quot; data-cfemail=&quot;054d6c626d4549362b35&quot;&gt;[email&amp;#160;protected]&lt;/a&gt;&lt;script cf-hash='f9e31' type=&quot;text/javascript&quot;&gt;\n/* &lt;![CDATA[ */!function(){try{var t=&quot;currentScript&quot;in document?document.currentScript:function(){for(var t=document.getElementsByTagName(&quot;script&quot;),e=t.length;e--;)if(t[e].getAttribute(&quot;cf-hash&quot;))return t[e]}();if(t&amp;&amp;t.previousSibling){var e,r,n,i,c=t.previousSibling,a=c.getAttribute(&quot;data-cfemail&quot;);if(a){for(e=&quot;&quot;,r=parseInt(a.substr(0,2),16),n=2;a.length-n;n+=2)i=parseInt(a.substr(n,2),16)^r,e+=String.fromCharCode(i);e=document.createTextNode(e),c.parentNode.replaceChild(e,c)}}}catch(u){}}();/* ]]&gt; */&lt;/script&gt; \nFormat settings, CABAC : Yes \nFormat settings, ReFrames : 4 frames \nDuration : 42mn 48s \nBit rate : 329 Kbps \nMaximum bit rate : 2 123 Kbps \nWidth : 720 pixels \nHeight : 404 pixels \nDisplay aspect ratio : 16:9 \nFrame rate mode : Constant \nFrame rate : 23.976 fps \nStream size : 101 MiB (84%) \nTitle : Resurrection US S01E04 HDTV x264 AAC E-Subs [GWC] \nWriting library : x264 core\n\nAudio \nFormat : AAC \nFormat profile : HE-AAC / LC \nDuration : 42mn 49s \nBit rate mode : Variable \nChannel(s) : 2 channels \nSampling rate : 48.0 KHz / 24.0 KHz \nStream size : 18.3 MiB (15%) \nLanguage : English \n\nText \nFormat : Timed Text \nTitle : English Subtitle by n17t01 \nLanguage : English \n","torrent":{"xt":"urn:btih:19f8713938fa6873c983f4baf5d8cad933ee286b","amp;dn":"Resurrection+US+S01E04+HDTV+x264+AAC+E-Subs+%5BGWC%5D.mp4","amp;tr":["udp%3A%2F%2Ftracker.openbittorrent.com%3A80","udp%3A%2F%2Fopen.demonii.com%3A1337","udp%3A%2F%2Ftracker.coppersurfer.tk%3A6969","udp%3A%2F%2Fexodus.desync.com%3A6969"],"infoHash":"19f8713938fa6873c983f4baf5d8cad933ee286b","infoHashBuffer":{"type":"Buffer","data":[25,248,113,57,56,250,104,115,201,131,244,186,245,216,202,217,51,238,40,107]},"announce":[],"urlList":[]}}